<?xml version="1.0" encoding="UTF-8"?>
<svg width="512px" height="512px" viewBox="0 0 512 512" xmlns="http://www.w3.org/2000/svg" xmlns:xlink="http://www.w3.org/1999/xlink" version="1.1">
 <!-- Generated by Pixelmator Pro 2.0.5 -->
 <path id="Rectangle" d="M20 135 L484 135 484 80 20 80 Z" fill="#5a5a5a" fill-opacity="1" stroke="none"/>
 <path id="Rectangle-copy-1" d="M24 436 L488 436 488 164 24 164 Z" fill="#969696" fill-opacity="1" stroke="none"/>
 <path id="Rectangle-copy" d="M20 164 L484 164 484 135 20 135 Z" fill="#ad1f23" fill-opacity="1" stroke="none"/>
 <path id="Rectangle-copy-2" d="M63 223 L247 223 247 179 63 179 Z" fill="#5b84b2" fill-opacity="1" stroke="none"/>
 <path id="Rectangle-copy-3" d="M265 234 L449 234 449 179 265 179 Z" fill="#1a3652" fill-opacity="1" stroke="none"/>
 <defs>
  <text id="string" transform="matrix(1.0 0.0 0.0 1.0 305.0 184.0)" font-size="40" text-decoration="none" y="36.0" x="1.951171875" fill="#ffffff" font-family="ArialMT, Arial">01:12</text>
 </defs>
 <use id="01:12" xlink:href="#string"/>
 <path id="Rectangle-copy-4" d="M63 264 L247 264 247 235 63 235 Z" fill="#dc7c0d" fill-opacity="1" stroke="none"/>
 <path id="Rectangle-copy-5" d="M63 346 L247 346 247 317 63 317 Z" fill="#dc7c0d" fill-opacity="1" stroke="none"/>
 <path id="Rectangle-copy-7" d="M63 387 L247 387 247 358 63 358 Z" fill="#dc7c0d" fill-opacity="1" stroke="none"/>
 <path id="Rectangle-copy-8" d="M63 428 L247 428 247 399 63 399 Z" fill="#dc7c0d" fill-opacity="1" stroke="none"/>
 <path id="Rectangle-copy-6" d="M63 305 L247 305 247 276 63 276 Z" fill="#dc7c0d" fill-opacity="1" stroke="none"/>
 <path id="Rectangle-copy-12" d="M265 316 L449 316 449 287 265 287 Z" fill="#009f3c" fill-opacity="1" stroke="none"/>
 <path id="Rectangle-copy-11" d="M265 357 L449 357 449 328 265 328 Z" fill="#009f3c" fill-opacity="1" stroke="none"/>
 <path id="Rectangle-copy-13" d="M265 398 L449 398 449 369 265 369 Z" fill="#009f3c" fill-opacity="1" stroke="none"/>
 <path id="Rectangle-copy-14" d="M265 432 L449 432 449 410 265 410 Z" fill="#009f3c" fill-opacity="1" stroke="none"/>
 <path id="Rectangle-copy-9" d="M265 275 L449 275 449 246 265 246 Z" fill="#009f3c" fill-opacity="1" stroke="none"/>
 <path id="Rectangle-1" d="M28 436 L484 436 484 88 28 88 Z" fill="none" stroke="#323232" stroke-width="36" stroke-opacity="1" stroke-linejoin="round" stroke-linecap="round"/>
</svg>
